<?xml version="1.0" encoding="utf-8"?>
<!-- Generator: Adobe Illustrator 28.2.0, SVG Export Plug-In . SVG Version: 6.00 Build 0)  -->
<svg version="1.1" id="Layer_1" xmlns="http://www.w3.org/2000/svg" xmlns:xlink="http://www.w3.org/1999/xlink" x="0px" y="0px"
	 viewBox="0 0 267.4 192.6" style="enable-background:new 0 0 267.4 192.6;" xml:space="preserve">
<style type="text/css">
	.st0{fill:#010101;}
	.st1{fill:#FFFFFF;}
	.st2{enable-background:new    ;}
</style>
<path class="st0" d="M267.4,120.7c0-39.3-59.9-71.2-133.7-71.2S0,81.4,0,120.7c0,2.3,0.2,4.5,0.6,6.8C0.2,129.7,0,132,0,134.2
	c0,24.1,22.5,45.5,57,58.4c27-21.9,51.8-32.3,68.6-37.6c47.9-15,89.5-6.9,112-2.2c8.8,1.8,16.3,3.9,21.9,5.6
	c5.1-7.6,7.9-15.7,7.9-24.2c0-2.3-0.2-4.5-0.6-6.8C267.2,125.2,267.4,123,267.4,120.7L267.4,120.7L267.4,120.7z"/>
<path class="st1" d="M137.1,130.1c50.3-11.3,92.8-1.9,115.7,3.4c0.3,0.1,0.5,0.1,0.8,0.2c7.1-8.8,11.1-18.5,11.1-28.7
	c0-39.3-58.7-71.2-131.1-71.2S2.6,65.7,2.6,105.1c0,24.4,22.6,46,57,58.8C90.6,143.1,118.6,134.3,137.1,130.1L137.1,130.1
	L137.1,130.1z"/>
<path class="st0" d="M138.6,115.5c50.3-10.2,92.6-1.1,115.4,4c8.6-9.7,13.4-20.6,13.4-32.1c0-2.4-0.2-4.7-0.6-7
	c0.4-2.3,0.6-4.6,0.6-7C267.4,32.9,207.6,0,133.7,0S0,32.9,0,73.5c0,2.4,0.2,4.7,0.6,7c-0.4,2.3-0.6,4.6-0.6,7
	c0,25.2,23.1,47.5,58.4,60.7C90.5,127.8,119.6,119.3,138.6,115.5L138.6,115.5L138.6,115.5z"/>
<g class="st2">
	<path d="M254.6,187.1v-3.6l-3.3-5.2h1.3l1.8,2.9c0.2,0.3,0.4,0.6,0.5,0.9s0.3,0.7,0.5,1.1h-0.5c0.2-0.5,0.3-0.8,0.5-1.1
		c0.2-0.3,0.3-0.6,0.5-0.9l1.7-2.9h1.3l-3.3,5.2v3.6H254.6z"/>
</g>
<g>
	<path d="M255.2,190.5c-4.6,0-8.4-3.8-8.4-8.4s3.8-8.4,8.4-8.4s8.4,3.8,8.4,8.4S259.9,190.5,255.2,190.5z M255.2,175.5
		c-3.6,0-6.6,3-6.6,6.6s3,6.6,6.6,6.6s6.6-3,6.6-6.6S258.9,175.5,255.2,175.5z"/>
</g>
</svg>
