<?xml version="1.0" encoding="UTF-8"?>
<svg id="Layer_1" data-name="Layer 1" xmlns="http://www.w3.org/2000/svg" viewBox="0 0 342.57 214.97">
  <defs>
    <style>
      .cls-1 {
        fill: #fff;
      }

      .cls-1, .cls-2 {
        stroke-width: 0px;
      }

      .cls-2 {
        fill: #010101;
      }
    </style>
  </defs>
  <path class="cls-2" d="M267.43,130.2c0-39.34-59.87-71.23-133.72-71.23S0,90.86,0,130.2c0,2.28.21,4.54.61,6.77-.39,2.23-.61,4.49-.61,6.77,0,39.34,59.87,71.23,133.72,71.23s133.72-31.89,133.72-71.23c0-2.28-.21-4.54-.61-6.77.39-2.23.61-4.49.61-6.77h-.01Z"/>
  <ellipse class="cls-1" cx="135.29" cy="118.35" rx="129.92" ry="71.23"/>
  <path class="cls-2" d="M267.43,91.98c0-39.34-59.87-71.23-133.72-71.23S0,52.64,0,91.98c0,2.28.21,4.54.61,6.77-.39,2.23-.61,4.49-.61,6.77,0,39.34,59.87,71.23,133.72,71.23s133.72-31.89,133.72-71.23c0-2.28-.21-4.54-.61-6.77.39-2.23.61-4.49.61-6.77h-.01Z"/>
  <path class="cls-2" d="M328.12,161.18c12.58-37.27-33.93-86.64-103.9-110.26-69.97-23.62-136.89-12.56-149.48,24.72-.73,2.16-1.25,4.37-1.59,6.61-1.09,1.99-2.01,4.06-2.74,6.22-12.58,37.27,33.93,86.64,103.9,110.26,69.97,23.62,136.89,12.56,149.48-24.72.73-2.16,1.25-4.37,1.59-6.61,1.09-1.99,2.01-4.06,2.74-6.22Z"/>
  <ellipse class="cls-1" cx="205.47" cy="107.48" rx="69.18" ry="127.31" transform="translate(40.78 270.72) rotate(-72.36)"/>
  <path class="cls-2" d="M340.52,122.69c12.58-37.27-33.93-86.64-103.9-110.26C166.65-11.2,99.73-.13,87.14,37.14c-.73,2.16-1.25,4.37-1.59,6.61-1.09,1.99-2.01,4.06-2.74,6.22-12.58,37.27,33.93,86.64,103.9,110.26,69.97,23.62,136.89,12.56,149.48-24.72.73-2.16,1.25-4.37,1.59-6.61,1.09-1.99,2.01-4.06,2.74-6.22h0Z"/>
</svg>